# xmcd CD database file
#
# Track frame offsets:
#	150
#	17848
#	31688
#	40605
#	58605
#	72790
#	88658
#	104900
#	118585
#	137975
#	146313
#	161433
#
# Disc length: 2369 seconds
#
# Revision: 1
# Processed by: cddbd v1.5.2PL0 Copyright (c) Steve Scherf et al.
# Submitted via: CDex 1.70beta2
#
DISCID=9e093f0c
DTITLE=Emiliana Torrini - Fisherman's Woman
DYEAR=2004
DGENRE=Indie
TTITLE0=Nothing Brings Me Down
TTITLE1=Sunny Road
TTITLE2=Snow
TTITLE3=Lifesaver
TTITLE4=Honeymoon Child
TTITLE5=Today Has Been Ok
TTITLE6=Next Time Around
TTITLE7=Heartstopper
TTITLE8=At Least It Was
TTITLE9=Fisherman's Woman
TTITLE10=Thinking Out Loud
TTITLE11=Serenade
EXTD=YEAR: 2004
EXTT0=
EXTT1=
EXTT2=
EXTT3=
EXTT4=
EXTT5=
EXTT6=
EXTT7=
EXTT8=
EXTT9=
EXTT10=
EXTT11=
PLAYORDER=
